<mxfile host="app.diagrams.net" modified="2020-09-17T08:44:16.302Z" agent="5.0 (Macintosh; Intel Mac OS X 10_15_6) AppleWebKit/537.36 (KHTML, like Gecko) Chrome/85.0.4183.102 Safari/537.36" etag="VUE_-aTyb1aZmG45raPb" version="13.7.2" type="github">
  <diagram id="skfMiZ9cFHY4Vt_SBQY7" name="Page-1">
    <mxGraphModel dx="876" dy="590" grid="1" gridSize="10" guides="1" tooltips="1" connect="1" arrows="1" fold="1" page="1" pageScale="1" pageWidth="827" pageHeight="1169" math="0" shadow="0">
      <root>
        <mxCell id="0" />
        <mxCell id="1" parent="0" />
        <mxCell id="q_KiJSIm2JAbqRRRDz-S-1" value="" style="rounded=0;whiteSpace=wrap;html=1;" vertex="1" parent="1">
          <mxGeometry x="220" y="140" width="120" height="60" as="geometry" />
        </mxCell>
        <mxCell id="q_KiJSIm2JAbqRRRDz-S-2" value="" style="rounded=1;whiteSpace=wrap;html=1;" vertex="1" parent="1">
          <mxGeometry x="390" y="170" width="120" height="60" as="geometry" />
        </mxCell>
        <mxCell id="q_KiJSIm2JAbqRRRDz-S-4" style="edgeStyle=orthogonalEdgeStyle;rounded=0;orthogonalLoop=1;jettySize=auto;html=1;entryX=0.5;entryY=1;entryDx=0;entryDy=0;" edge="1" parent="1" source="q_KiJSIm2JAbqRRRDz-S-3" target="q_KiJSIm2JAbqRRRDz-S-1">
          <mxGeometry relative="1" as="geometry" />
        </mxCell>
        <mxCell id="q_KiJSIm2JAbqRRRDz-S-5" style="edgeStyle=orthogonalEdgeStyle;rounded=0;orthogonalLoop=1;jettySize=auto;html=1;entryX=0.567;entryY=1.017;entryDx=0;entryDy=0;entryPerimeter=0;" edge="1" parent="1" source="q_KiJSIm2JAbqRRRDz-S-3" target="q_KiJSIm2JAbqRRRDz-S-2">
          <mxGeometry relative="1" as="geometry" />
        </mxCell>
        <mxCell id="q_KiJSIm2JAbqRRRDz-S-3" value="" style="ellipse;whiteSpace=wrap;html=1;" vertex="1" parent="1">
          <mxGeometry x="190" y="300" width="120" height="70" as="geometry" />
        </mxCell>
      </root>
    </mxGraphModel>
  </diagram>
</mxfile>
